<svg width="139" height="139" viewBox="0 0 139 139" fill="none" xmlns="http://www.w3.org/2000/svg">
<mask id="mask0_30_2746" style="mask-type:alpha" maskUnits="userSpaceOnUse" x="-140" y="-140" width="279" height="279">
<circle cx="-0.5" cy="-0.5" r="137.576" fill="#C4C4C4" stroke="#F8BB54" stroke-width="3.84828"/>
</mask>
<g mask="url(#mask0_30_2746)">
<path d="M-221.071 -0.470495C-221.071 -0.470495 -97.2258 -19.9819 -65.3928 -96.7909C-35.1348 -170.001 90.454 -186.87 90.454 -186.87" stroke="#F59E0B" stroke-width="4.32558" stroke-miterlimit="10"/>
<path d="M-221.071 19.828C-221.071 19.828 -82.5467 -1.53895 -46.9454 -87.0635C-13.0317 -168.539 127.405 -186.87 127.405 -186.87" stroke="#F59E0B" stroke-width="4.32558" stroke-miterlimit="10"/>
<path d="M-221.071 40.0704C-221.071 40.0704 -67.8113 16.7915 -28.4418 -77.3356C9.01544 -167.021 164.356 -186.87 164.356 -186.87" stroke="#F59E0B" stroke-width="4.32558" stroke-miterlimit="10"/>
<path d="M-221.071 60.3129C-221.071 60.3129 -53.0757 35.1785 -9.99455 -67.6641C31.0621 -165.503 201.307 -186.87 201.307 -186.87" stroke="#F59E0B" stroke-width="4.32558" stroke-miterlimit="10"/>
<path d="M-221.071 80.6119C-221.071 80.6119 -38.3968 53.6219 8.50913 -57.8806C53.1093 -164.041 238.202 -186.87 238.202 -186.87" stroke="#F59E0B" stroke-width="4.32558" stroke-miterlimit="10"/>
<path d="M-221.071 100.853C-221.071 100.853 -23.6611 72.0088 26.9568 -48.1527C75.156 -162.523 275.153 -186.87 275.153 -186.87" stroke="#F59E0B" stroke-width="4.32558" stroke-miterlimit="10"/>
<path d="M-221.071 121.152C-221.071 121.152 -8.92587 90.3953 45.4604 -38.4253C97.203 -161.005 312.104 -186.87 312.104 -186.87" stroke="#F59E0B" stroke-width="4.32558" stroke-miterlimit="10"/>
<path d="M-221.071 141.396C-221.071 141.396 5.75338 108.783 63.9076 -28.6974C119.25 -159.542 349.054 -186.87 349.054 -186.87" stroke="#F59E0B" stroke-width="4.32558" stroke-miterlimit="10"/>
<path d="M-221.071 161.636C-221.071 161.636 20.4887 127.17 82.4113 -19.0263C141.297 -158.024 386.005 -186.87 386.005 -186.87" stroke="#F59E0B" stroke-width="4.32558" stroke-miterlimit="10"/>
<path d="M-221.071 181.935C-221.071 181.935 35.2243 145.557 100.915 -9.24242C163.343 -156.506 422.901 -186.87 422.901 -186.87" stroke="#F59E0B" stroke-width="4.32558" stroke-miterlimit="10"/>
<path d="M-221.071 202.179C-221.071 202.179 49.9033 163.943 119.362 0.429026C185.391 -155.044 459.852 -186.87 459.852 -186.87" stroke="#F59E0B" stroke-width="4.32558" stroke-miterlimit="10"/>
<path d="M-221.071 222.423C-221.071 222.423 64.639 182.33 137.866 10.1565C207.437 -153.526 496.803 -186.87 496.803 -186.87" stroke="#F59E0B" stroke-width="4.32558" stroke-miterlimit="10"/>
<path d="M-221.071 242.722C-221.071 242.722 79.3742 200.772 156.313 19.8844C229.484 -152.008 533.753 -186.87 533.753 -186.87" stroke="#F59E0B" stroke-width="4.32558" stroke-miterlimit="10"/>
<path d="M-221.071 262.962C-221.071 262.962 94.0535 219.104 174.817 29.6119C251.531 -150.546 570.65 -186.87 570.65 -186.87" stroke="#F59E0B" stroke-width="4.32558" stroke-miterlimit="10"/>
</g>
</svg>
