<svg width="24" height="23" viewBox="0 0 24 23" fill="none" xmlns="http://www.w3.org/2000/svg">
<path d="M24 11.871V10.4445L22.0632 10.4445C21.864 8.25006 21.0648 1.91391 18.3456 0.363747C17.7528 0.0237579 16.7808 -0.24966 15.5304 0.368502C15.2976 0.485001 14.5776 0.882051 13.3896 1.55014L15.4952 2.70355C15.5783 2.74907 15.6514 2.81047 15.7104 2.88418C15.7694 2.9579 15.8131 3.04247 15.8388 3.13301C15.8646 3.22355 15.872 3.31825 15.8606 3.41164C15.8492 3.50503 15.8192 3.59524 15.7724 3.67707C15.6789 3.84064 15.5239 3.96088 15.3411 4.0115C15.1584 4.06213 14.9629 4.03901 14.7974 3.94721C13.0978 3.00447 8.49424 0.451782 8.328 0.368485C7.0776 -0.249676 6.1056 0.0237412 5.5128 0.36373C2.7936 1.91389 1.99442 8.25004 1.7952 10.4445H0V11.871H24Z" fill="white"/>
<path d="M15.0766 14.5358C15.8963 13.9132 16.9 13.575 17.9329 13.5734C18.846 13.5731 19.7394 13.8363 20.504 14.3308C21.2685 14.8254 21.8711 15.5298 22.2381 16.3581C22.6051 17.1864 22.7206 18.1026 22.5705 18.9949C22.4204 19.8872 22.0112 20.7168 21.3928 21.3824C20.7745 22.048 19.9738 22.5208 19.0887 22.7429C18.2036 22.9651 17.2722 22.927 16.4086 22.6333C15.5449 22.3397 14.7863 21.8031 14.2255 21.0893C13.6646 20.3755 13.3258 19.5153 13.2504 18.6138C12.8929 18.2939 12.4256 18.1212 11.944 18.1309C11.4623 18.1406 11.0025 18.332 10.6584 18.6661C10.5506 19.8209 10.0102 20.8939 9.14359 21.6737C8.27698 22.4535 7.14703 22.8835 5.97631 22.8791C4.80558 22.8747 3.67898 22.4361 2.81841 21.6498C1.95784 20.8635 1.4257 19.7864 1.32681 18.6308C1.22792 17.4752 1.56945 16.3247 2.28413 15.4061C2.99881 14.4875 4.03482 13.8673 5.18808 13.6678C6.34134 13.4682 7.52825 13.7036 8.51499 14.3278C9.50173 14.9519 10.2168 15.9195 10.5193 17.0399C10.967 16.824 11.4577 16.7101 11.9556 16.7064C12.4535 16.7027 12.9459 16.8093 13.3969 17.0185C13.6666 16.0307 14.2569 15.1584 15.0766 14.5358Z" fill="white"/>
</svg>
