<svg width="183" height="40" viewBox="0 0 183 40" fill="none" xmlns="http://www.w3.org/2000/svg">
<rect width="183" height="39.8855" rx="6" fill="url(#paint0_linear_24_1406)"/>
<path d="M44 19.871V18.4445L42.0632 18.4445C41.864 16.2501 41.0648 9.91391 38.3456 8.36375C37.7528 8.02376 36.7808 7.75034 35.5304 8.3685C35.2976 8.485 34.5776 8.88205 33.3896 9.55014L35.4952 10.7035C35.5783 10.7491 35.6514 10.8105 35.7104 10.8842C35.7694 10.9579 35.8131 11.0425 35.8388 11.133C35.8646 11.2235 35.872 11.3183 35.8606 11.4116C35.8492 11.505 35.8192 11.5952 35.7724 11.6771C35.6789 11.8406 35.5239 11.9609 35.3411 12.0115C35.1584 12.0621 34.9629 12.039 34.7974 11.9472C33.0978 11.0045 28.4942 8.45178 28.328 8.36849C27.0776 7.75032 26.1056 8.02374 25.5128 8.36373C22.7936 9.91389 21.9944 16.25 21.7952 18.4445H20V19.871H44Z" fill="white"/>
<path d="M35.0766 22.5358C35.8963 21.9132 36.9 21.575 37.9329 21.5734C38.846 21.5731 39.7394 21.8363 40.504 22.3308C41.2685 22.8253 41.8711 23.5298 42.2381 24.3581C42.6051 25.1864 42.7206 26.1026 42.5705 26.9949C42.4204 27.8872 42.0112 28.7168 41.3928 29.3824C40.7745 30.048 39.9738 30.5208 39.0887 30.7429C38.2036 30.9651 37.2722 30.927 36.4086 30.6333C35.5449 30.3397 34.7863 29.8031 34.2255 29.0893C33.6646 28.3755 33.3258 27.5153 33.2504 26.6138C32.8929 26.2939 32.4256 26.1212 31.944 26.1309C31.4623 26.1406 31.0025 26.332 30.6584 26.6661C30.5506 27.8209 30.0102 28.8939 29.1436 29.6737C28.277 30.4535 27.147 30.8835 25.9763 30.8791C24.8056 30.8747 23.679 30.4361 22.8184 29.6498C21.9578 28.8635 21.4257 27.7864 21.3268 26.6308C21.2279 25.4752 21.5695 24.3247 22.2841 23.4061C22.9988 22.4875 24.0348 21.8673 25.1881 21.6678C26.3413 21.4682 27.5282 21.7036 28.515 22.3278C29.5017 22.9519 30.2168 23.9195 30.5193 25.0399C30.967 24.824 31.4577 24.7101 31.9556 24.7064C32.4535 24.7027 32.9459 24.8093 33.3969 25.0185C33.6666 24.0307 34.2569 23.1584 35.0766 22.5358Z" fill="white"/>
<path d="M61.584 28.7787C60.208 28.7787 58.88 28.6107 57.6 28.2747C56.336 27.9227 55.304 27.4747 54.504 26.9307L56.064 23.4267C56.816 23.9067 57.68 24.3067 58.656 24.6267C59.648 24.9307 60.632 25.0827 61.608 25.0827C62.264 25.0827 62.792 25.0267 63.192 24.9147C63.592 24.7867 63.88 24.6267 64.056 24.4347C64.248 24.2267 64.344 23.9867 64.344 23.7147C64.344 23.3307 64.168 23.0267 63.816 22.8027C63.464 22.5787 63.008 22.3947 62.448 22.2507C61.888 22.1067 61.264 21.9627 60.576 21.8187C59.904 21.6747 59.224 21.4907 58.536 21.2667C57.864 21.0427 57.248 20.7547 56.688 20.4027C56.128 20.0347 55.672 19.5627 55.32 18.9867C54.968 18.3947 54.792 17.6507 54.792 16.7547C54.792 15.7467 55.064 14.8347 55.608 14.0187C56.168 13.2027 57 12.5467 58.104 12.0507C59.208 11.5547 60.584 11.3067 62.232 11.3067C63.336 11.3067 64.416 11.4347 65.472 11.6907C66.544 11.9307 67.496 12.2907 68.328 12.7707L66.864 16.2987C66.064 15.8667 65.272 15.5467 64.488 15.3387C63.704 15.1147 62.944 15.0027 62.208 15.0027C61.552 15.0027 61.024 15.0747 60.624 15.2187C60.224 15.3467 59.936 15.5227 59.76 15.7467C59.584 15.9707 59.496 16.2267 59.496 16.5147C59.496 16.8827 59.664 17.1787 60 17.4027C60.352 17.6107 60.808 17.7867 61.368 17.9307C61.944 18.0587 62.568 18.1947 63.24 18.3387C63.928 18.4827 64.608 18.6667 65.28 18.8907C65.968 19.0987 66.592 19.3867 67.152 19.7547C67.712 20.1067 68.16 20.5787 68.496 21.1707C68.848 21.7467 69.024 22.4747 69.024 23.3547C69.024 24.3307 68.744 25.2347 68.184 26.0667C67.64 26.8827 66.816 27.5387 65.712 28.0347C64.624 28.5307 63.248 28.7787 61.584 28.7787ZM74.5607 28.4427V15.4107H69.4007V11.6427H84.4487V15.4107H79.3127V28.4427H74.5607ZM94.4567 28.7787C93.1127 28.7787 91.8727 28.5627 90.7367 28.1307C89.6007 27.6987 88.6087 27.0907 87.7607 26.3067C86.9287 25.5067 86.2807 24.5787 85.8167 23.5227C85.3527 22.4667 85.1207 21.3067 85.1207 20.0427C85.1207 18.7787 85.3527 17.6187 85.8167 16.5627C86.2807 15.5067 86.9287 14.5867 87.7607 13.8027C88.6087 13.0027 89.6007 12.3867 90.7367 11.9547C91.8727 11.5227 93.1127 11.3067 94.4567 11.3067C95.8167 11.3067 97.0567 11.5227 98.1767 11.9547C99.3127 12.3867 100.297 13.0027 101.129 13.8027C101.961 14.5867 102.609 15.5067 103.073 16.5627C103.553 17.6187 103.793 18.7787 103.793 20.0427C103.793 21.3067 103.553 22.4747 103.073 23.5467C102.609 24.6027 101.961 25.5227 101.129 26.3067C100.297 27.0907 99.3127 27.6987 98.1767 28.1307C97.0567 28.5627 95.8167 28.7787 94.4567 28.7787ZM94.4567 24.8427C95.0967 24.8427 95.6887 24.7307 96.2327 24.5067C96.7927 24.2827 97.2727 23.9627 97.6727 23.5467C98.0887 23.1147 98.4087 22.6027 98.6327 22.0107C98.8727 21.4187 98.9927 20.7627 98.9927 20.0427C98.9927 19.3067 98.8727 18.6507 98.6327 18.0747C98.4087 17.4827 98.0887 16.9787 97.6727 16.5627C97.2727 16.1307 96.7927 15.8027 96.2327 15.5787C95.6887 15.3547 95.0967 15.2427 94.4567 15.2427C93.8167 15.2427 93.2167 15.3547 92.6567 15.5787C92.1127 15.8027 91.6327 16.1307 91.2167 16.5627C90.8167 16.9787 90.4967 17.4827 90.2567 18.0747C90.0327 18.6507 89.9207 19.3067 89.9207 20.0427C89.9207 20.7627 90.0327 21.4187 90.2567 22.0107C90.4967 22.6027 90.8167 23.1147 91.2167 23.5467C91.6327 23.9627 92.1127 24.2827 92.6567 24.5067C93.2167 24.7307 93.8167 24.8427 94.4567 24.8427ZM106.282 28.4427V11.6427H113.962C115.498 11.6427 116.818 11.8907 117.922 12.3867C119.042 12.8827 119.906 13.6027 120.514 14.5467C121.122 15.4747 121.426 16.5787 121.426 17.8587C121.426 19.1227 121.122 20.2187 120.514 21.1467C119.906 22.0587 119.042 22.7627 117.922 23.2587C116.818 23.7387 115.498 23.9787 113.962 23.9787H108.922L111.034 21.9867V28.4427H106.282ZM116.674 28.4427L112.498 22.3227H117.562L121.762 28.4427H116.674ZM111.034 22.4907L108.922 20.3067H113.674C114.666 20.3067 115.402 20.0907 115.882 19.6587C116.378 19.2267 116.626 18.6267 116.626 17.8587C116.626 17.0747 116.378 16.4667 115.882 16.0347C115.402 15.6027 114.666 15.3867 113.674 15.3867H108.922L111.034 13.2027V22.4907ZM124.047 28.4427V11.6427H128.799V28.4427H124.047ZM136.548 18.1467H144.348V21.6987H136.548V18.1467ZM136.884 24.7707H145.668V28.4427H132.18V11.6427H145.356V15.3147H136.884V24.7707ZM154.209 28.7787C152.833 28.7787 151.505 28.6107 150.225 28.2747C148.961 27.9227 147.929 27.4747 147.129 26.9307L148.689 23.4267C149.441 23.9067 150.305 24.3067 151.281 24.6267C152.273 24.9307 153.257 25.0827 154.233 25.0827C154.889 25.0827 155.417 25.0267 155.817 24.9147C156.217 24.7867 156.505 24.6267 156.681 24.4347C156.873 24.2267 156.969 23.9867 156.969 23.7147C156.969 23.3307 156.793 23.0267 156.441 22.8027C156.089 22.5787 155.633 22.3947 155.073 22.2507C154.513 22.1067 153.889 21.9627 153.201 21.8187C152.529 21.6747 151.849 21.4907 151.161 21.2667C150.489 21.0427 149.873 20.7547 149.313 20.4027C148.753 20.0347 148.297 19.5627 147.945 18.9867C147.593 18.3947 147.417 17.6507 147.417 16.7547C147.417 15.7467 147.689 14.8347 148.233 14.0187C148.793 13.2027 149.625 12.5467 150.729 12.0507C151.833 11.5547 153.209 11.3067 154.857 11.3067C155.961 11.3067 157.041 11.4347 158.097 11.6907C159.169 11.9307 160.121 12.2907 160.953 12.7707L159.489 16.2987C158.689 15.8667 157.897 15.5467 157.113 15.3387C156.329 15.1147 155.569 15.0027 154.833 15.0027C154.177 15.0027 153.649 15.0747 153.249 15.2187C152.849 15.3467 152.561 15.5227 152.385 15.7467C152.209 15.9707 152.121 16.2267 152.121 16.5147C152.121 16.8827 152.289 17.1787 152.625 17.4027C152.977 17.6107 153.433 17.7867 153.993 17.9307C154.569 18.0587 155.193 18.1947 155.865 18.3387C156.553 18.4827 157.233 18.6667 157.905 18.8907C158.593 19.0987 159.217 19.3867 159.777 19.7547C160.337 20.1067 160.785 20.5787 161.121 21.1707C161.473 21.7467 161.649 22.4747 161.649 23.3547C161.649 24.3307 161.369 25.2347 160.809 26.0667C160.265 26.8827 159.441 27.5387 158.337 28.0347C157.249 28.5307 155.873 28.7787 154.209 28.7787Z" fill="white"/>
<defs>
<linearGradient id="paint0_linear_24_1406" x1="-10.8071" y1="-1.62502e-05" x2="184.06" y2="67.8712" gradientUnits="userSpaceOnUse">
<stop stop-color="#EDCE76"/>
<stop offset="0.161458" stop-color="#FA7E1E"/>
<stop offset="0.5" stop-color="#D62976"/>
<stop offset="0.75" stop-color="#962FBF"/>
<stop offset="1" stop-color="#4F5BD5"/>
</linearGradient>
</defs>
</svg>
