<svg width="128" height="29" viewBox="0 0 128 29" fill="none" xmlns="http://www.w3.org/2000/svg">
<rect x="0.459961" y="0.957977" width="127" height="28" rx="6" fill="url(#paint0_linear_30_3119)"/>
<path d="M11.504 18.958V10.558H15.14C15.892 10.558 16.54 10.682 17.084 10.93C17.628 11.17 18.048 11.518 18.344 11.974C18.64 12.43 18.788 12.974 18.788 13.606C18.788 14.23 18.64 14.77 18.344 15.226C18.048 15.682 17.628 16.034 17.084 16.282C16.54 16.522 15.892 16.642 15.14 16.642H12.584L13.448 15.766V18.958H11.504ZM13.448 15.982L12.584 15.058H15.032C15.632 15.058 16.08 14.93 16.376 14.674C16.672 14.418 16.82 14.062 16.82 13.606C16.82 13.142 16.672 12.782 16.376 12.526C16.08 12.27 15.632 12.142 15.032 12.142H12.584L13.448 11.218V15.982ZM21.8584 13.942H25.9024V15.454H21.8584V13.942ZM22.0024 17.398H26.5744V18.958H20.0704V10.558H26.4184V12.118H22.0024V17.398ZM33.5806 18.958L30.9646 14.914L32.5366 13.966L35.7886 18.958H33.5806ZM28.1206 18.958V10.558H30.0526V18.958H28.1206ZM29.4886 15.574V13.954H32.4166V15.574H29.4886ZM32.7166 14.974L30.9286 14.758L33.6526 10.558H35.7046L32.7166 14.974ZM40.6841 19.102C40.0201 19.102 39.4041 18.994 38.8361 18.778C38.2761 18.562 37.7881 18.258 37.3721 17.866C36.9641 17.474 36.6441 17.014 36.4121 16.486C36.1881 15.958 36.0761 15.382 36.0761 14.758C36.0761 14.134 36.1881 13.558 36.4121 13.03C36.6441 12.502 36.9681 12.042 37.3841 11.65C37.8001 11.258 38.2881 10.954 38.8481 10.738C39.4081 10.522 40.0161 10.414 40.6721 10.414C41.3361 10.414 41.9441 10.522 42.4961 10.738C43.0561 10.954 43.5401 11.258 43.9481 11.65C44.3641 12.042 44.6881 12.502 44.9201 13.03C45.1521 13.55 45.2681 14.126 45.2681 14.758C45.2681 15.382 45.1521 15.962 44.9201 16.498C44.6881 17.026 44.3641 17.486 43.9481 17.878C43.5401 18.262 43.0561 18.562 42.4961 18.778C41.9441 18.994 41.3401 19.102 40.6841 19.102ZM40.6721 17.446C41.0481 17.446 41.3921 17.382 41.7041 17.254C42.0241 17.126 42.3041 16.942 42.5441 16.702C42.7841 16.462 42.9681 16.178 43.0961 15.85C43.2321 15.522 43.3001 15.158 43.3001 14.758C43.3001 14.358 43.2321 13.994 43.0961 13.666C42.9681 13.338 42.7841 13.054 42.5441 12.814C42.3121 12.574 42.0361 12.39 41.7161 12.262C41.3961 12.134 41.0481 12.07 40.6721 12.07C40.2961 12.07 39.9481 12.134 39.6281 12.262C39.3161 12.39 39.0401 12.574 38.8001 12.814C38.5601 13.054 38.3721 13.338 38.2361 13.666C38.1081 13.994 38.0441 14.358 38.0441 14.758C38.0441 15.15 38.1081 15.514 38.2361 15.85C38.3721 16.178 38.5561 16.462 38.7881 16.702C39.0281 16.942 39.3081 17.126 39.6281 17.254C39.9481 17.382 40.2961 17.446 40.6721 17.446ZM46.7657 18.958V10.558H48.3737L51.9497 16.486H51.0977L54.6137 10.558H56.2217L56.2337 18.958H54.4097L54.3977 13.354H54.7457L51.9257 18.07H51.0617L48.1817 13.354H48.5897V18.958H46.7657ZM60.1084 13.942H64.1524V15.454H60.1084V13.942ZM60.2524 17.398H64.8244V18.958H58.3204V10.558L64.6684 10.558V12.118H60.2524V17.398ZM72.1546 10.558H74.0986V18.958H72.1546V10.558ZM68.3386 18.958H66.3946V10.558H68.3386V18.958ZM72.2986 15.514H68.1946V13.87H72.2986V15.514ZM81.7126 18.094V12.142H78.8326L78.7966 13.366C78.7726 13.886 78.7366 14.378 78.6886 14.842C78.6486 15.306 78.5846 15.73 78.4966 16.114C78.4086 16.49 78.2926 16.81 78.1486 17.074C78.0126 17.338 77.8406 17.526 77.6326 17.638L75.5566 17.374C75.8446 17.382 76.0806 17.282 76.2646 17.074C76.4566 16.866 76.6086 16.574 76.7206 16.198C76.8326 15.814 76.9126 15.366 76.9606 14.854C77.0166 14.342 77.0566 13.786 77.0806 13.186L77.1766 10.558H83.6326V18.094H81.7126ZM75.2806 20.698L75.2926 17.374H84.8086V20.698H83.0086V18.958H77.0806V20.698H75.2806ZM86.4052 17.374C86.8692 17.51 87.2572 17.55 87.5692 17.494C87.8892 17.43 88.1732 17.206 88.4212 16.822L88.8292 16.21L89.0092 16.006L91.7932 10.558H93.7012L90.1252 17.206C89.8052 17.806 89.4252 18.266 88.9852 18.586C88.5532 18.906 88.0772 19.086 87.5572 19.126C87.0372 19.174 86.4972 19.082 85.9372 18.85L86.4052 17.374ZM88.9732 17.626L85.1812 10.558H87.2572L90.0412 16.198L88.9732 17.626ZM96.4131 13.942H100.457V15.454H96.4131V13.942ZM96.5571 17.398H101.129V18.958H94.6251V10.558H100.973V12.118H96.5571V17.398ZM102.699 18.958V10.558H104.307L107.883 16.486H107.031L110.547 10.558H112.155L112.167 18.958H110.343L110.331 13.354H110.679L107.859 18.07H106.995L104.115 13.354H104.523V18.958H102.699ZM114.206 16.042L113.834 10.558H116.066L115.694 16.042H114.206ZM114.95 19.054C114.614 19.054 114.338 18.946 114.122 18.73C113.906 18.514 113.798 18.258 113.798 17.962C113.798 17.658 113.906 17.406 114.122 17.206C114.338 16.998 114.614 16.894 114.95 16.894C115.294 16.894 115.57 16.998 115.778 17.206C115.994 17.406 116.102 17.658 116.102 17.962C116.102 18.258 115.994 18.514 115.778 18.73C115.57 18.946 115.294 19.054 114.95 19.054Z" fill="white"/>
<defs>
<linearGradient id="paint0_linear_30_3119" x1="-7.04004" y1="0.957966" x2="128.529" y2="47.6364" gradientUnits="userSpaceOnUse">
<stop stop-color="#EDCE76"/>
<stop offset="0.161458" stop-color="#FA7E1E"/>
<stop offset="0.5" stop-color="#D62976"/>
<stop offset="0.75" stop-color="#962FBF"/>
<stop offset="1" stop-color="#4F5BD5"/>
</linearGradient>
</defs>
</svg>
