<svg width="64" height="64" viewBox="0 0 64 64" fill="none" xmlns="http://www.w3.org/2000/svg">
<rect width="64" height="64" rx="6" fill="#22C55E"/>
<path d="M28.3333 23.75C28.3333 24.9655 27.8504 26.1313 26.9909 26.9909C26.1314 27.8504 24.9656 28.3333 23.75 28.3333C22.5344 28.3333 21.3686 27.8504 20.5091 26.9909C19.6496 26.1313 19.1667 24.9655 19.1667 23.75C19.1667 22.5344 19.6496 21.3686 20.5091 20.5091C21.3686 19.6495 22.5344 19.1666 23.75 19.1666C24.9656 19.1666 26.1314 19.6495 26.9909 20.5091C27.8504 21.3686 28.3333 22.5344 28.3333 23.75V23.75ZM28.3333 23.75L28.7202 23.5556C29.7385 23.0464 30.8614 22.7813 32 22.7813C33.1386 22.7813 34.2615 23.0464 35.2798 23.5556L35.6667 23.75H28.3333ZM35.6667 23.75C35.6667 24.9655 36.1496 26.1313 37.0091 26.9909C37.8686 27.8504 39.0344 28.3333 40.25 28.3333C41.4656 28.3333 42.6314 27.8504 43.4909 26.9909C44.3504 26.1313 44.8333 24.9655 44.8333 23.75C44.8333 22.5344 44.3504 21.3686 43.4909 20.5091C42.6314 19.6495 41.4656 19.1666 40.25 19.1666C39.0344 19.1666 37.8686 19.6495 37.0091 20.5091C36.1496 21.3686 35.6667 22.5344 35.6667 23.75ZM32 35.3055C41.1667 29.8055 41.1667 41.7221 48.5 38.545C46.6667 46.3055 37.5 46.3055 32 40.8055C26.5 46.3055 17.3333 46.3055 15.5 38.545C22.8333 41.7221 22.8333 29.8055 32 35.3055Z" stroke="white" stroke-width="2" stroke-linecap="round" stroke-linejoin="round"/>
</svg>
