<svg width="64" height="64" viewBox="0 0 64 64" fill="none" xmlns="http://www.w3.org/2000/svg">
<rect width="64" height="64" rx="6" fill="#22C55E"/>
<path d="M32.0001 41.1666L29.2501 43.9166C28.0344 45.132 26.3858 45.8147 24.6668 45.8147C22.9477 45.8147 21.2991 45.132 20.0834 43.9166V43.9166C18.8681 42.7009 18.1853 41.0523 18.1853 39.3333C18.1853 37.6143 18.8681 35.9656 20.0834 34.7499L25.5834 29.2499C26.7991 28.0346 28.4477 27.3518 30.1668 27.3518C31.8858 27.3518 33.5344 28.0346 34.7501 29.2499V29.2499" stroke="white" stroke-width="2" stroke-linecap="round"/>
<path d="M32 22.8333L34.75 20.0833C35.9657 18.8679 37.6143 18.1852 39.3333 18.1852C41.0523 18.1852 42.701 18.8679 43.9167 20.0833V20.0833C45.132 21.299 45.8148 22.9476 45.8148 24.6666C45.8148 26.3857 45.132 28.0343 43.9167 29.25L38.4167 34.75C37.201 35.9653 35.5523 36.6481 33.8333 36.6481C32.1143 36.6481 30.4657 35.9653 29.25 34.75" stroke="white" stroke-width="2" stroke-linecap="round"/>
</svg>
