<svg width="129" height="94" viewBox="0 0 129 94" fill="none" xmlns="http://www.w3.org/2000/svg">
<mask id="mask0_32_3131" style="mask-type:alpha" maskUnits="userSpaceOnUse" x="0" y="0" width="129" height="130">
<circle cx="64.5" cy="64.9424" r="63.6103" fill="#C4C4C4" stroke="#F8BB54" stroke-width="1.77931"/>
</mask>
<g mask="url(#mask0_32_3131)">
<path d="M-18.4333 13.7446C-18.4333 13.7446 -3.66324 11.0086 0.147637 1.43254C3.79222 -7.74715 18.8054 -10.2146 18.8054 -10.2146" stroke="#F59E0B" stroke-width="2" stroke-miterlimit="10"/>
<path d="M-18.4333 18.3471C-18.4333 18.3471 -0.312733 15.1893 4.35489 3.63158C8.80512 -7.40195 27.2071 -10.2146 27.2071 -10.2146" stroke="#F59E0B" stroke-width="2" stroke-miterlimit="10"/>
<path d="M-18.4333 22.9626C-18.4333 22.9626 3.02494 19.37 8.54936 5.85619C13.818 -7.06948 35.6088 -10.2146 35.6088 -10.2146" stroke="#F59E0B" stroke-width="2" stroke-miterlimit="10"/>
<path d="M-18.4333 27.5652C-18.4333 27.5652 6.3754 23.5507 12.7566 8.05524C18.8309 -6.72428 44.0105 -10.2146 44.0105 -10.2146" stroke="#F59E0B" stroke-width="2" stroke-miterlimit="10"/>
<path d="M-18.4333 32.1678C-18.4333 32.1678 9.72586 27.7315 16.9639 10.267C23.8438 -6.37907 52.3995 -10.2146 52.3995 -10.2146" stroke="#F59E0B" stroke-width="2" stroke-miterlimit="10"/>
<path d="M-18.4333 36.7832C-18.4333 36.7832 13.0635 31.9249 21.1584 12.4788C28.8695 -6.04671 60.8012 -10.2146 60.8012 -10.2146" stroke="#F59E0B" stroke-width="2" stroke-miterlimit="10"/>
<path d="M-18.4333 41.3858C-18.4333 41.3858 16.414 36.0928 25.3656 14.6907C33.8824 -5.70151 69.2029 -10.2146 69.2029 -10.2146" stroke="#F59E0B" stroke-width="2" stroke-miterlimit="10"/>
<path d="M-18.4333 45.9884C-18.4333 45.9884 19.7645 40.2735 29.56 16.8897C38.8953 -5.3563 77.6047 -10.2146 77.6047 -10.2146" stroke="#F59E0B" stroke-width="2" stroke-miterlimit="10"/>
<path d="M-18.4333 50.6039C-18.4333 50.6039 23.1021 44.4671 33.7673 19.1142C43.9083 -5.02393 85.9937 -10.2146 85.9937 -10.2146" stroke="#F59E0B" stroke-width="2" stroke-miterlimit="10"/>
<path d="M-18.4333 55.2062C-18.4333 55.2062 26.4526 48.6478 37.9618 21.3261C48.9211 -4.67873 94.3954 -10.2146 94.3954 -10.2146" stroke="#F59E0B" stroke-width="2" stroke-miterlimit="10"/>
<path d="M-18.4333 59.8216C-18.4333 59.8216 29.803 52.8284 42.1691 23.5379C53.9341 -4.33353 102.797 -10.2146 102.797 -10.2146" stroke="#F59E0B" stroke-width="2" stroke-miterlimit="10"/>
<path d="M-18.4333 64.4246C-18.4333 64.4246 33.1407 57.0092 46.3635 25.7498C58.9469 -4.00106 111.199 -10.2146 111.199 -10.2146" stroke="#F59E0B" stroke-width="2" stroke-miterlimit="10"/>
<path d="M-18.4333 69.0267C-18.4333 69.0267 36.4912 61.19 50.5708 27.9487C63.9599 -3.65586 119.6 -10.2146 119.6 -10.2146" stroke="#F59E0B" stroke-width="2" stroke-miterlimit="10"/>
<path d="M-18.4333 73.6421C-18.4333 73.6421 39.8417 65.3707 54.7781 30.1733C68.9727 -3.31066 127.989 -10.2146 127.989 -10.2146" stroke="#F59E0B" stroke-width="2" stroke-miterlimit="10"/>
<path d="M-18.4333 78.2451C-18.4333 78.2451 43.1793 69.5514 58.9725 32.3724C73.9857 -2.97829 136.391 -10.2146 136.391 -10.2146" stroke="#F59E0B" stroke-width="2" stroke-miterlimit="10"/>
<path d="M-18.4333 82.8481C-18.4333 82.8481 46.5298 73.7321 63.1798 34.5842C78.9986 -2.63308 144.793 -10.2146 144.793 -10.2146" stroke="#F59E0B" stroke-width="2" stroke-miterlimit="10"/>
<path d="M-18.4333 87.4636C-18.4333 87.4636 49.8802 77.9253 67.3742 36.796C84.0114 -2.28788 153.195 -10.2146 153.195 -10.2146" stroke="#F59E0B" stroke-width="2" stroke-miterlimit="10"/>
<path d="M-18.4333 92.0657C-18.4333 92.0657 53.2179 82.0936 71.5815 39.0078C89.0244 -1.95552 161.584 -10.2146 161.584 -10.2146" stroke="#F59E0B" stroke-width="2" stroke-miterlimit="10"/>
</g>
</svg>
