<svg width="129" height="129" viewBox="0 0 129 129" fill="none" xmlns="http://www.w3.org/2000/svg">
<mask id="mask0_30_1085" style="mask-type:alpha" maskUnits="userSpaceOnUse" x="0" y="0" width="129" height="129">
<circle cx="64.5" cy="64.5001" r="63.6103" fill="#C4C4C4" stroke="#F8BB54" stroke-width="1.77931"/>
</mask>
<g mask="url(#mask0_30_1085)">
<path d="M-37.4844 27.0501C-37.4844 27.0501 -7.44941 21.4864 0.299994 2.01358C7.71125 -16.6533 38.2404 -21.6708 38.2404 -21.6708" stroke="#F59E0B" stroke-width="2" stroke-miterlimit="10"/>
<path d="M-37.4844 36.4093C-37.4844 36.4093 -0.636166 29.9878 8.85543 6.48532C17.905 -15.9513 55.3252 -21.6708 55.3252 -21.6708" stroke="#F59E0B" stroke-width="2" stroke-miterlimit="10"/>
<path d="M-37.4844 45.7948C-37.4844 45.7948 6.15098 38.4893 17.3849 11.0091C28.0987 -15.2752 72.4102 -21.6708 72.4102 -21.6708" stroke="#F59E0B" stroke-width="2" stroke-miterlimit="10"/>
<path d="M-37.4844 55.1543C-37.4844 55.1543 12.9641 46.9908 25.9403 15.4808C38.2924 -14.5733 89.4951 -21.6708 89.4951 -21.6708" stroke="#F59E0B" stroke-width="2" stroke-miterlimit="10"/>
<path d="M-37.4844 64.5137C-37.4844 64.5137 19.7773 55.4923 34.4958 19.9785C48.486 -13.8713 106.554 -21.6708 106.554 -21.6708" stroke="#F59E0B" stroke-width="2" stroke-miterlimit="10"/>
<path d="M-37.4844 73.899C-37.4844 73.899 26.5644 64.0197 43.0252 24.4761C58.7058 -13.1954 123.639 -21.6708 123.639 -21.6708" stroke="#F59E0B" stroke-width="2" stroke-miterlimit="10"/>
<path d="M-37.4844 83.2584C-37.4844 83.2584 33.3776 72.4951 51.5807 28.9739C68.8996 -12.4935 140.724 -21.6708 140.724 -21.6708" stroke="#F59E0B" stroke-width="2" stroke-miterlimit="10"/>
<path d="M-37.4844 92.6178C-37.4844 92.6178 40.1908 80.9966 60.11 33.4457C79.0932 -11.7915 157.809 -21.6708 157.809 -21.6708" stroke="#F59E0B" stroke-width="2" stroke-miterlimit="10"/>
<path d="M-37.4844 102.003C-37.4844 102.003 46.9778 89.5242 68.6655 37.9693C89.2871 -11.1156 174.868 -21.6708 174.868 -21.6708" stroke="#F59E0B" stroke-width="2" stroke-miterlimit="10"/>
<path d="M-37.4844 111.362C-37.4844 111.362 53.7911 98.0257 77.195 42.4671C99.4807 -10.4137 191.952 -21.6708 191.952 -21.6708" stroke="#F59E0B" stroke-width="2" stroke-miterlimit="10"/>
<path d="M-37.4844 120.748C-37.4844 120.748 60.6041 106.527 85.7505 46.9647C109.674 -9.71171 209.037 -21.6708 209.037 -21.6708" stroke="#F59E0B" stroke-width="2" stroke-miterlimit="10"/>
<path d="M-37.4844 130.108C-37.4844 130.108 67.3913 115.029 94.2799 51.4626C119.868 -9.03564 226.122 -21.6708 226.122 -21.6708" stroke="#F59E0B" stroke-width="2" stroke-miterlimit="10"/>
<path d="M-37.4844 139.466C-37.4844 139.466 74.2044 123.53 102.835 55.9341C130.062 -8.33367 243.206 -21.6708 243.206 -21.6708" stroke="#F59E0B" stroke-width="2" stroke-miterlimit="10"/>
<path d="M-37.4844 148.852C-37.4844 148.852 81.0177 132.032 111.391 60.4579C140.256 -7.6317 260.266 -21.6708 260.266 -21.6708" stroke="#F59E0B" stroke-width="2" stroke-miterlimit="10"/>
<path d="M-37.4844 158.212C-37.4844 158.212 87.8047 140.533 119.92 64.9296C150.449 -6.95583 277.351 -21.6708 277.351 -21.6708" stroke="#F59E0B" stroke-width="2" stroke-miterlimit="10"/>
<path d="M-37.4844 167.572C-37.4844 167.572 94.618 149.035 128.476 69.4273C160.643 -6.25385 294.436 -21.6708 294.436 -21.6708" stroke="#F59E0B" stroke-width="2" stroke-miterlimit="10"/>
<path d="M-37.4844 176.957C-37.4844 176.957 101.431 157.561 137.005 73.9251C170.837 -5.55189 311.52 -21.6708 311.52 -21.6708" stroke="#F59E0B" stroke-width="2" stroke-miterlimit="10"/>
<path d="M-37.4844 186.316C-37.4844 186.316 108.218 166.038 145.56 78.4228C181.031 -4.87603 328.58 -21.6708 328.58 -21.6708" stroke="#F59E0B" stroke-width="2" stroke-miterlimit="10"/>
</g>
</svg>
