<svg width="183" height="40" viewBox="0 0 183 40" fill="none" xmlns="http://www.w3.org/2000/svg">
<rect width="183" height="39.8855" rx="6" fill="url(#paint0_linear_30_3088)"/>
<path d="M44 19.871V18.4445L42.0632 18.4445C41.864 16.2501 41.0648 9.91391 38.3456 8.36375C37.7528 8.02376 36.7808 7.75034 35.5304 8.3685C35.2976 8.485 34.5776 8.88205 33.3896 9.55014L35.4952 10.7035C35.5783 10.7491 35.6514 10.8105 35.7104 10.8842C35.7694 10.9579 35.8131 11.0425 35.8388 11.133C35.8646 11.2235 35.872 11.3183 35.8606 11.4116C35.8492 11.505 35.8192 11.5952 35.7724 11.6771C35.6789 11.8406 35.5239 11.9609 35.3411 12.0115C35.1584 12.0621 34.9629 12.039 34.7974 11.9472C33.0978 11.0045 28.4942 8.45178 28.328 8.36849C27.0776 7.75032 26.1056 8.02374 25.5128 8.36373C22.7936 9.91389 21.9944 16.25 21.7952 18.4445H20V19.871H44Z" fill="white"/>
<path d="M35.0766 22.5356C35.8963 21.9131 36.9 21.5749 37.9329 21.5732C38.846 21.5729 39.7394 21.8362 40.504 22.3307C41.2685 22.8252 41.8711 23.5297 42.2381 24.358C42.6051 25.1862 42.7206 26.1025 42.5705 26.9948C42.4204 27.887 42.0112 28.7167 41.3928 29.3823C40.7745 30.0479 39.9738 30.5206 39.0887 30.7428C38.2036 30.9649 37.2722 30.9268 36.4086 30.6332C35.5449 30.3395 34.7863 29.803 34.2255 29.0892C33.6646 28.3753 33.3258 27.5151 33.2504 26.6137C32.8929 26.2938 32.4256 26.1211 31.944 26.1308C31.4623 26.1405 31.0025 26.3319 30.6584 26.666C30.5506 27.8208 30.0102 28.8938 29.1436 29.6736C28.277 30.4534 27.147 30.8834 25.9763 30.879C24.8056 30.8745 23.679 30.436 22.8184 29.6496C21.9578 28.8633 21.4257 27.7863 21.3268 26.6306C21.2279 25.475 21.5695 24.3246 22.2841 23.406C22.9988 22.4874 24.0348 21.8672 25.1881 21.6676C26.3413 21.468 27.5282 21.7035 28.515 22.3276C29.5017 22.9518 30.2168 23.9193 30.5193 25.0397C30.967 24.8239 31.4577 24.71 31.9556 24.7063C32.4535 24.7026 32.9459 24.8092 33.3969 25.0183C33.6666 24.0306 34.2569 23.1582 35.0766 22.5356Z" fill="white"/>
<path d="M61.584 28.7789C60.208 28.7789 58.88 28.6109 57.6 28.2749C56.336 27.9229 55.304 27.4749 54.504 26.9309L56.064 23.4269C56.816 23.9069 57.68 24.3069 58.656 24.6269C59.648 24.9309 60.632 25.0829 61.608 25.0829C62.264 25.0829 62.792 25.0269 63.192 24.9149C63.592 24.7869 63.88 24.6269 64.056 24.4349C64.248 24.2269 64.344 23.9869 64.344 23.7149C64.344 23.3309 64.168 23.0269 63.816 22.8029C63.464 22.5789 63.008 22.3949 62.448 22.2509C61.888 22.1069 61.264 21.9629 60.576 21.8189C59.904 21.6749 59.224 21.4909 58.536 21.2669C57.864 21.0429 57.248 20.7549 56.688 20.4029C56.128 20.0349 55.672 19.5629 55.32 18.9869C54.968 18.3949 54.792 17.6509 54.792 16.7549C54.792 15.7469 55.064 14.8349 55.608 14.0189C56.168 13.2029 57 12.5469 58.104 12.0509C59.208 11.5549 60.584 11.3069 62.232 11.3069C63.336 11.3069 64.416 11.4349 65.472 11.6909C66.544 11.9309 67.496 12.2909 68.328 12.7709L66.864 16.2989C66.064 15.8669 65.272 15.5469 64.488 15.3389C63.704 15.1149 62.944 15.0029 62.208 15.0029C61.552 15.0029 61.024 15.0749 60.624 15.2189C60.224 15.3469 59.936 15.5229 59.76 15.7469C59.584 15.9709 59.496 16.2269 59.496 16.5149C59.496 16.8829 59.664 17.1789 60 17.4029C60.352 17.6109 60.808 17.7869 61.368 17.9309C61.944 18.0589 62.568 18.1949 63.24 18.3389C63.928 18.4829 64.608 18.6669 65.28 18.8909C65.968 19.0989 66.592 19.3869 67.152 19.7549C67.712 20.1069 68.16 20.5789 68.496 21.1709C68.848 21.7469 69.024 22.4749 69.024 23.3549C69.024 24.3309 68.744 25.2349 68.184 26.0669C67.64 26.8829 66.816 27.5389 65.712 28.0349C64.624 28.5309 63.248 28.7789 61.584 28.7789ZM74.5607 28.4429V15.4109H69.4007V11.6429H84.4487V15.4109H79.3127V28.4429H74.5607ZM94.4567 28.7789C93.1127 28.7789 91.8727 28.5629 90.7367 28.1309C89.6007 27.6989 88.6087 27.0909 87.7607 26.3069C86.9287 25.5069 86.2807 24.5789 85.8167 23.5229C85.3527 22.4669 85.1207 21.3069 85.1207 20.0429C85.1207 18.7789 85.3527 17.6189 85.8167 16.5629C86.2807 15.5069 86.9287 14.5869 87.7607 13.8029C88.6087 13.0029 89.6007 12.3869 90.7367 11.9549C91.8727 11.5229 93.1127 11.3069 94.4567 11.3069C95.8167 11.3069 97.0567 11.5229 98.1767 11.9549C99.3127 12.3869 100.297 13.0029 101.129 13.8029C101.961 14.5869 102.609 15.5069 103.073 16.5629C103.553 17.6189 103.793 18.7789 103.793 20.0429C103.793 21.3069 103.553 22.4749 103.073 23.5469C102.609 24.6029 101.961 25.5229 101.129 26.3069C100.297 27.0909 99.3127 27.6989 98.1767 28.1309C97.0567 28.5629 95.8167 28.7789 94.4567 28.7789ZM94.4567 24.8429C95.0967 24.8429 95.6887 24.7309 96.2327 24.5069C96.7927 24.2829 97.2727 23.9629 97.6727 23.5469C98.0887 23.1149 98.4087 22.6029 98.6327 22.0109C98.8727 21.4189 98.9927 20.7629 98.9927 20.0429C98.9927 19.3069 98.8727 18.6509 98.6327 18.0749C98.4087 17.4829 98.0887 16.9789 97.6727 16.5629C97.2727 16.1309 96.7927 15.8029 96.2327 15.5789C95.6887 15.3549 95.0967 15.2429 94.4567 15.2429C93.8167 15.2429 93.2167 15.3549 92.6567 15.5789C92.1127 15.8029 91.6327 16.1309 91.2167 16.5629C90.8167 16.9789 90.4967 17.4829 90.2567 18.0749C90.0327 18.6509 89.9207 19.3069 89.9207 20.0429C89.9207 20.7629 90.0327 21.4189 90.2567 22.0109C90.4967 22.6029 90.8167 23.1149 91.2167 23.5469C91.6327 23.9629 92.1127 24.2829 92.6567 24.5069C93.2167 24.7309 93.8167 24.8429 94.4567 24.8429ZM106.282 28.4429V11.6429H113.962C115.498 11.6429 116.818 11.8909 117.922 12.3869C119.042 12.8829 119.906 13.6029 120.514 14.5469C121.122 15.4749 121.426 16.5789 121.426 17.8589C121.426 19.1229 121.122 20.2189 120.514 21.1469C119.906 22.0589 119.042 22.7629 117.922 23.2589C116.818 23.7389 115.498 23.9789 113.962 23.9789H108.922L111.034 21.9869V28.4429H106.282ZM116.674 28.4429L112.498 22.3229H117.562L121.762 28.4429H116.674ZM111.034 22.4909L108.922 20.3069H113.674C114.666 20.3069 115.402 20.0909 115.882 19.6589C116.378 19.2269 116.626 18.6269 116.626 17.8589C116.626 17.0749 116.378 16.4669 115.882 16.0349C115.402 15.6029 114.666 15.3869 113.674 15.3869H108.922L111.034 13.2029V22.4909ZM124.047 28.4429V11.6429H128.799V28.4429H124.047ZM136.548 18.1469H144.348V21.6989H136.548V18.1469ZM136.884 24.7709H145.668V28.4429H132.18V11.6429H145.356V15.3149H136.884V24.7709ZM154.209 28.7789C152.833 28.7789 151.505 28.6109 150.225 28.2749C148.961 27.9229 147.929 27.4749 147.129 26.9309L148.689 23.4269C149.441 23.9069 150.305 24.3069 151.281 24.6269C152.273 24.9309 153.257 25.0829 154.233 25.0829C154.889 25.0829 155.417 25.0269 155.817 24.9149C156.217 24.7869 156.505 24.6269 156.681 24.4349C156.873 24.2269 156.969 23.9869 156.969 23.7149C156.969 23.3309 156.793 23.0269 156.441 22.8029C156.089 22.5789 155.633 22.3949 155.073 22.2509C154.513 22.1069 153.889 21.9629 153.201 21.8189C152.529 21.6749 151.849 21.4909 151.161 21.2669C150.489 21.0429 149.873 20.7549 149.313 20.4029C148.753 20.0349 148.297 19.5629 147.945 18.9869C147.593 18.3949 147.417 17.6509 147.417 16.7549C147.417 15.7469 147.689 14.8349 148.233 14.0189C148.793 13.2029 149.625 12.5469 150.729 12.0509C151.833 11.5549 153.209 11.3069 154.857 11.3069C155.961 11.3069 157.041 11.4349 158.097 11.6909C159.169 11.9309 160.121 12.2909 160.953 12.7709L159.489 16.2989C158.689 15.8669 157.897 15.5469 157.113 15.3389C156.329 15.1149 155.569 15.0029 154.833 15.0029C154.177 15.0029 153.649 15.0749 153.249 15.2189C152.849 15.3469 152.561 15.5229 152.385 15.7469C152.209 15.9709 152.121 16.2269 152.121 16.5149C152.121 16.8829 152.289 17.1789 152.625 17.4029C152.977 17.6109 153.433 17.7869 153.993 17.9309C154.569 18.0589 155.193 18.1949 155.865 18.3389C156.553 18.4829 157.233 18.6669 157.905 18.8909C158.593 19.0989 159.217 19.3869 159.777 19.7549C160.337 20.1069 160.785 20.5789 161.121 21.1709C161.473 21.7469 161.649 22.4749 161.649 23.3549C161.649 24.3309 161.369 25.2349 160.809 26.0669C160.265 26.8829 159.441 27.5389 158.337 28.0349C157.249 28.5309 155.873 28.7789 154.209 28.7789Z" fill="white"/>
<defs>
<linearGradient id="paint0_linear_30_3088" x1="-10.8071" y1="-1.62502e-05" x2="184.06" y2="67.8712" gradientUnits="userSpaceOnUse">
<stop stop-color="#EDCE76"/>
<stop offset="0.161458" stop-color="#FA7E1E"/>
<stop offset="0.5" stop-color="#D62976"/>
<stop offset="0.75" stop-color="#962FBF"/>
<stop offset="1" stop-color="#4F5BD5"/>
</linearGradient>
</defs>
</svg>
